<svg width="570" height="470" viewBox="0 0 570 470" fill="none" xmlns="http://www.w3.org/2000/svg">
<g clip-path="url(#clip0)">
<g filter="url(#filter0_d)">
<rect y="35" width="540" height="400" rx="16" fill="white"/>
<rect x="0.5" y="35.5" width="539" height="399" rx="15.5" stroke="#E5E8ED"/>
</g>
<g clip-path="url(#clip1)">
<path d="M153.5 258.1V249C163.2 249 170.7 239.4 167 229.3C165.6 225.5 162.6 222.5 158.9 221.2C148.7 217.4 139.1 224.9 139.1 234.5H130C130 219.1 144.9 207.1 161 212.2C168.1 214.4 173.7 220 175.9 227C181 243.2 169 258.1 153.5 258.1Z" fill="#0080FF"/>
<path fill-rule="evenodd" clip-rule="evenodd" d="M153.6 249H144.5V239.9H153.6V249Z" fill="#0080FF"/>
<path fill-rule="evenodd" clip-rule="evenodd" d="M144.5 256H137.5V249H144.5V256Z" fill="#0080FF"/>
<path fill-rule="evenodd" clip-rule="evenodd" d="M137.5 249H131.6V243.1H137.5V249Z" fill="#0080FF"/>
<path d="M213.8 224.6C211.1 222.7 207.7 221.8 203.8 221.8H195.3V248.9H203.8C207.7 248.9 211.1 247.9 213.8 245.9C215.3 244.9 216.4 243.4 217.2 241.6C218 239.8 218.4 237.6 218.4 235.2C218.4 232.8 218 230.7 217.2 228.9C216.4 227 215.3 225.6 213.8 224.6ZM200.3 226.4H203C206 226.4 208.4 227 210.3 228.1C212.4 229.3 213.4 231.7 213.4 235.1C213.4 238.6 212.4 241.1 210.3 242.5C208.5 243.7 206.1 244.3 203.1 244.3H200.4V226.4H200.3Z" fill="#0080FF"/>
<path d="M224.4 221.5C223.6 221.5 222.9 221.8 222.3 222.4C221.7 222.9 221.4 223.6 221.4 224.5C221.4 225.3 221.7 226 222.3 226.6C222.9 227.2 223.6 227.5 224.4 227.5C225.2 227.5 225.9 227.2 226.5 226.6C227.1 226 227.4 225.3 227.4 224.5C227.4 223.7 227.1 223 226.5 222.4C225.9 221.8 225.2 221.5 224.4 221.5Z" fill="#0080FF"/>
<path d="M226.8 229.8H222V248.9H226.8V229.8Z" fill="#0080FF"/>
<path d="M244.2 231.4C242.8 230.1 241.1 229.4 239.4 229.4C236.8 229.4 234.6 230.3 232.9 232.1C231.2 233.9 230.3 236.2 230.3 238.9C230.3 241.6 231.2 243.9 232.8 245.7C234.5 247.5 236.7 248.4 239.4 248.4C241.2 248.4 242.8 247.9 244.1 246.9V247.3C244.1 248.9 243.7 250.1 242.8 251C242 251.8 240.8 252.3 239.4 252.3C237.2 252.3 235.8 251.4 234.1 249.1L230.8 252.2L230.9 252.3C231.6 253.3 232.7 254.3 234.1 255.2C235.5 256.1 237.3 256.6 239.4 256.6C242.2 256.6 244.6 255.7 246.2 254C247.9 252.3 248.8 249.9 248.8 247.1V229.8H244.1V231.4H244.2ZM242.9 242.7C242.1 243.7 241 244.1 239.6 244.1C238.2 244.1 237.2 243.6 236.3 242.7C235.5 241.8 235.1 240.5 235.1 239C235.1 237.4 235.5 236.2 236.3 235.2C237.1 234.3 238.2 233.8 239.6 233.8C241 233.8 242.1 234.3 242.9 235.2C243.7 236.2 244.2 237.4 244.2 239C244.2 240.5 243.8 241.7 242.9 242.7Z" fill="#0080FF"/>
<path d="M257.8 229.8H253V248.9H257.8V229.8Z" fill="#0080FF"/>
<path d="M255.5 221.5C254.7 221.5 254 221.8 253.4 222.4C252.8 222.9 252.5 223.6 252.5 224.5C252.5 225.3 252.8 226 253.4 226.6C254 227.2 254.7 227.5 255.5 227.5C256.3 227.5 257 227.2 257.6 226.6C258.2 226 258.5 225.3 258.5 224.5C258.5 223.7 258.2 223 257.6 222.4C257 221.8 256.3 221.5 255.5 221.5Z" fill="#0080FF"/>
<path d="M268.3 224.6H263.6V229.8H260.9V234.2H263.6V242.1C263.6 244.6 264.1 246.4 265.1 247.4C266.1 248.4 267.8 248.9 270.3 248.9C271.1 248.9 271.9 248.9 272.6 248.8H272.8V244.4L271.2 244.5C270.1 244.5 269.3 244.3 268.9 243.9C268.5 243.5 268.3 242.6 268.3 241.4V234.2H272.8V229.8H268.3V224.6Z" fill="#0080FF"/>
<path d="M300.1 221.8H295.3V248.9H300.1V221.8Z" fill="#0080FF"/>
<path d="M348.6 242C347.7 243 346.9 243.8 346.2 244.2C345.5 244.6 344.7 244.8 343.7 244.8C342.3 244.8 341.1 244.3 340.2 243.2C339.3 242.1 338.8 240.8 338.8 239.2C338.8 237.6 339.3 236.2 340.2 235.2C341.1 234.1 342.2 233.6 343.7 233.6C345.2 233.6 346.9 234.6 348.3 236.2L351.5 233.2C349.4 230.5 346.8 229.3 343.6 229.3C341 229.3 338.7 230.3 336.8 232.2C334.9 234.1 334 236.5 334 239.3C334 242.1 334.9 244.5 336.8 246.4C338.7 248.3 340.9 249.3 343.6 249.3C347.1 249.3 349.9 247.8 351.8 245.1L348.6 242Z" fill="#0080FF"/>
<path d="M368.2 232.5C367.5 231.6 366.6 230.8 365.4 230.2C364.3 229.6 362.9 229.4 361.4 229.4C358.7 229.4 356.5 230.4 354.9 232.3C353.3 234.2 352.5 236.6 352.5 239.5C352.5 242.4 353.4 244.8 355.1 246.6C356.8 248.4 359.2 249.3 362 249.3C365.2 249.3 367.9 248 369.9 245.4L370 245.3L366.9 242.3C366.6 242.6 366.2 243 365.8 243.4C365.3 243.8 364.9 244.2 364.4 244.4C363.7 244.8 362.9 244.9 362 244.9C360.7 244.9 359.6 244.5 358.7 243.7C357.9 243 357.5 242 357.3 240.8H370V239C370 237.8 369.8 236.6 369.5 235.5C369.4 234.4 368.9 233.4 368.2 232.5ZM357.8 236.9C358 236 358.5 235.2 359.1 234.6C359.8 234 360.6 233.6 361.6 233.6C362.8 233.6 363.7 233.9 364.3 234.6C364.9 235.2 365.2 236 365.3 236.8H357.8V236.9Z" fill="#0080FF"/>
<path d="M386.7 231.2C385.2 230 383.2 229.3 380.7 229.3C379.1 229.3 377.6 229.7 376.3 230.3C375.1 230.9 373.8 232 373 233.4V233.5L376.1 236.4C377.4 234.4 378.8 233.7 380.6 233.7C381.6 233.7 382.4 234 383.1 234.5C383.7 235 384 235.7 384 236.5V237.4C382.8 237 381.6 236.9 380.5 236.9C378.1 236.9 376.2 237.5 374.7 238.6C373.2 239.7 372.5 241.3 372.5 243.4C372.5 245.2 373.1 246.6 374.4 247.7C375.6 248.7 377.2 249.3 379 249.3C380.8 249.3 382.5 248.6 384.1 247.3V248.9H388.8V236.6C388.9 234.3 388.1 232.5 386.7 231.2ZM378.1 241.6C378.6 241.2 379.4 241 380.4 241C381.6 241 382.8 241.2 384 241.7V243.6C383 244.6 381.6 245.1 379.9 245.1C379.1 245.1 378.4 244.9 378 244.6C377.6 244.2 377.4 243.8 377.4 243.2C377.4 242.4 377.6 241.9 378.1 241.6Z" fill="#0080FF"/>
<path d="M407.3 231.6C406 230.1 404.1 229.4 401.7 229.4C399.8 229.4 398.3 229.9 397.1 231V229.8H392.4V248.9H397.2V238.3C397.2 236.9 397.5 235.7 398.2 234.9C398.9 234.1 399.8 233.7 401 233.7C402.1 233.7 402.9 234.1 403.5 234.8C404.1 235.5 404.4 236.5 404.4 237.8V248.9H409.2V237.8C409.3 235.2 408.7 233.1 407.3 231.6Z" fill="#0080FF"/>
<path d="M289.3 231.2C287.8 230 285.8 229.3 283.3 229.3C281.7 229.3 280.2 229.7 278.9 230.3C277.7 230.9 276.4 232 275.6 233.4V233.5L278.7 236.4C280 234.4 281.4 233.7 283.2 233.7C284.2 233.7 285 234 285.7 234.5C286.3 235 286.6 235.7 286.6 236.5V237.4C285.4 237 284.2 236.9 283.1 236.9C280.7 236.9 278.8 237.5 277.3 238.6C275.8 239.7 275.1 241.3 275.1 243.4C275.1 245.2 275.7 246.6 277 247.7C278.2 248.7 279.8 249.3 281.6 249.3C283.4 249.3 285.1 248.6 286.7 247.3V248.9H291.4V236.6C291.5 234.3 290.7 232.5 289.3 231.2ZM280.7 241.6C281.2 241.2 282 241 283 241C284.2 241 285.4 241.2 286.6 241.7V243.6C285.6 244.6 284.2 245.1 282.5 245.1C281.7 245.1 281 244.9 280.6 244.6C280.2 244.2 280 243.8 280 243.2C280 242.4 280.2 241.9 280.7 241.6Z" fill="#0080FF"/>
<path d="M317.5 249.3C309.8 249.3 303.5 243 303.5 235.3C303.5 227.6 309.8 221.3 317.5 221.3C325.2 221.3 331.5 227.6 331.5 235.3C331.5 243 325.2 249.3 317.5 249.3ZM317.5 226.3C312.5 226.3 308.5 230.4 308.5 235.3C308.5 240.2 312.6 244.3 317.5 244.3C322.4 244.3 326.5 240.2 326.5 235.3C326.5 230.4 322.5 226.3 317.5 226.3Z" fill="#0080FF"/>
</g>
</g>
<defs>
<filter id="filter0_d" x="-4" y="33" width="548" height="408" filterUnits="userSpaceOnUse" color-interpolation-filters="sRGB">
<feFlood flood-opacity="0" result="BackgroundImageFix"/>
<feColorMatrix in="SourceAlpha" type="matrix" values="0 0 0 0 0 0 0 0 0 0 0 0 0 0 0 0 0 0 127 0"/>
<feOffset dy="2"/>
<feGaussianBlur stdDeviation="2"/>
<feColorMatrix type="matrix" values="0 0 0 0 0.00392157 0 0 0 0 0.054902 0 0 0 0 0.156863 0 0 0 0.05 0"/>
<feBlend mode="normal" in2="BackgroundImageFix" result="effect1_dropShadow"/>
<feBlend mode="normal" in="SourceGraphic" in2="effect1_dropShadow" result="shape"/>
</filter>
<clipPath id="clip0">
<rect width="570" height="470" rx="20" fill="white"/>
</clipPath>
<clipPath id="clip1">
<rect width="279.3" height="47.1" fill="white" transform="translate(130 211)"/>
</clipPath>
</defs>
</svg>
